<svg xmlns="http://www.w3.org/2000/svg" width="420" height="260" viewBox="0 0 420 260">
<rect width="420" height="260" fill="#dce7d1"/><rect x="30" y="28" width="360" height="204" rx="10" fill="#f8f8f1"/>
<path d="M30 38q0-10 10-10h340q10 0 10 10v20H30" fill="#285d48"/><circle cx="46" cy="43" r="3" fill="#dce7d1"/><circle cx="58" cy="43" r="3" fill="#dce7d1"/>
<text x="54" y="86" fill="#203a32" font-family="Arial,sans-serif" font-size="18" font-weight="bold">HELIOS</text>
<text x="54" y="107" fill="#53655e" font-family="Arial,sans-serif" font-size="10">PATIENT CASE TAKING</text>
<rect x="54" y="125" width="133" height="71" rx="6" fill="#e8edcf"/><path d="M71 143h15m-15 11h99m-99 11h86m-86 11h99" stroke="#95aa98" stroke-width="4"/>
<path d="M199 160h22m-6-5 6 5-6 5" stroke="#285d48" stroke-width="2" fill="none"/>
<rect x="236" y="125" width="126" height="71" rx="6" fill="#285d48"/><text x="249" y="154" fill="#f7f7f0" font-family="Arial,sans-serif" font-size="12">Clinician review</text><text x="249" y="174" fill="#dce7d1" font-family="Arial,sans-serif" font-size="10">A clearer picture.</text>
<text x="54" y="217" fill="#53655e" font-family="Arial,sans-serif" font-size="9">CONCEPT ILLUSTRATION</text></svg>